<?xml version="1.0" encoding="UTF-8"?>
<svg version="1.1" xmlns="http://www.w3.org/2000/svg" width="528" height="528">
<path d="M0 0 C5.75159893 3.42666186 11.55351651 6.76500292 17.35546875 10.10546875 C19.01497559 11.06163086 19.01497559 11.06163086 20.70800781 12.03710938 C22.97952552 13.34576504 25.25117372 14.65419424 27.52294922 15.96240234 C32.98966855 19.11128929 38.45371762 22.26480139 43.91796875 25.41796875 C46.08462186 26.66799225 48.25128854 27.91799222 50.41796875 29.16796875 C82.91796875 47.91796875 82.91796875 47.91796875 115.41796875 66.66796875 C116.49183838 67.28744385 117.56570801 67.90691895 118.67211914 68.54516602 C120.82517912 69.78744681 122.97801353 71.03011863 125.13061523 72.27319336 C130.15898336 75.17632987 135.18936689 78.07575742 140.22817993 80.96072388 C142.0022942 81.97674059 143.77566794 82.99403803 145.54882812 84.01171875 C147.76612189 85.28379167 149.9847795 86.5534916 152.20507812 87.8203125 C167.75536969 96.75155845 179.44246065 104.53634173 185.91796875 121.91796875 C187.17061681 126.62526959 187.06324927 131.2731729 187.05841064 136.10771179 C187.06286733 137.5001114 187.06286733 137.5001114 187.06741405 138.92064029 C187.07608896 142.03263326 187.07760828 145.1445877 187.07910156 148.2565918 C187.0837306 150.48738182 187.08875538 152.71817104 187.09414673 154.94895935 C187.10726479 161.01112455 187.11371459 167.07327867 187.11815739 173.13545585 C187.12108919 176.92379451 187.12519421 180.71213016 187.12966156 184.5004673 C187.14176894 194.99798644 187.15215137 205.49550379 187.15553665 215.99302959 C187.15575622 216.66445373 187.15597578 217.33587787 187.156202 218.0276482 C187.15642028 218.70064125 187.15663856 219.3736343 187.15686345 220.06702107 C187.15730691 221.43066704 187.15775347 222.79431301 187.15820312 224.15795898 C187.15842455 224.83436854 187.15864598 225.5107781 187.15887412 226.20768491 C187.1628199 237.1614045 187.18026829 248.11505748 187.20356265 259.06875136 C187.22730876 270.32614255 187.2394823 281.58350153 187.24090457 292.8409217 C187.24195204 299.15692825 187.2478477 305.47284082 187.26572418 311.78882408 C187.28221882 317.73220921 187.28435349 323.67542985 187.27558517 329.61882973 C187.27481554 331.79642808 187.27914775 333.97403532 187.28904343 336.15161133 C187.30179125 339.13237121 187.29587053 342.11255102 187.28546143 345.0933075 C187.29754603 346.37520329 187.29754603 346.37520329 187.30987477 347.68299598 C187.21081201 359.87508754 182.3370931 371.0613284 174.0625 379.98046875 C170.16839842 383.49863703 165.74323217 386.0251403 161.19824219 388.6171875 C158.52648193 390.14129228 155.86691877 391.68573799 153.20703125 393.23046875 C148.18678076 396.14059622 143.15854754 399.03654493 138.12632751 401.92591858 C132.05162216 405.41417695 125.984698 408.91586365 119.91796875 412.41796875 C117.75133734 413.66802987 115.58467061 414.91802975 113.41796875 416.16796875 C112.34546875 416.78671875 111.27296875 417.40546875 110.16796875 418.04296875 C48.41796874 453.66796875 48.41796874 453.66796875 45.16748047 455.54321289 C43.00239804 456.79232393 40.83735893 458.04151004 38.67236328 459.29077148 C33.23181169 462.42999184 27.79049659 465.56787438 22.34765625 468.703125 C21.26363525 469.32791748 20.17961426 469.95270996 19.06274414 470.59643555 C16.89584141 471.84499736 14.72836742 473.09256829 12.56030273 474.33911133 C7.12951033 477.46650579 1.71846557 480.6221861 -3.6640625 483.83203125 C-5.26580322 484.78227173 -5.26580322 484.78227173 -6.89990234 485.75170898 C-8.9062076 486.94390462 -10.9082248 488.14336221 -12.90478516 489.35180664 C-25.14665962 496.60901102 -37.47592482 500.94013677 -51.70703125 497.85546875 C-63.43957649 494.68371684 -73.81013705 488.0132795 -84.1640625 481.8359375 C-89.91566143 478.40927564 -95.71757901 475.07093458 -101.51953125 471.73046875 C-102.62586914 471.09302734 -103.73220703 470.45558594 -104.87207031 469.79882812 C-107.14358802 468.49017246 -109.41523622 467.18174326 -111.68701172 465.87353516 C-117.15373105 462.72464821 -122.61778012 459.57113611 -128.08203125 456.41796875 C-130.24868436 455.16794525 -132.41535104 453.91794528 -134.58203125 452.66796875 C-156.24869792 440.16796875 -177.91536458 427.66796875 -199.58203125 415.16796875 C-200.65590088 414.54849365 -201.72977051 413.92901855 -202.83618164 413.29077148 C-204.98924162 412.04849069 -207.14207603 410.80581887 -209.29467773 409.56274414 C-214.32304586 406.65960763 -219.35342939 403.76018008 -224.39224243 400.87521362 C-226.1663567 399.85919691 -227.93973044 398.84189947 -229.71289062 397.82421875 C-231.93018439 396.55214583 -234.148842 395.2824459 -236.36914062 394.015625 C-251.91943219 385.08437905 -263.60652315 377.29959577 -270.08203125 359.91796875 C-271.33467931 355.21066791 -271.22731177 350.5627646 -271.22247314 345.72822571 C-271.22544427 344.7999593 -271.22841539 343.8716929 -271.23147655 342.91529721 C-271.24015146 339.80330424 -271.24167078 336.6913498 -271.24316406 333.5793457 C-271.2477931 331.34855568 -271.25281788 329.11776646 -271.25820923 326.88697815 C-271.27132729 320.82481295 -271.27777709 314.76265883 -271.28221989 308.70048165 C-271.28515169 304.91214299 -271.28925671 301.12380734 -271.29372406 297.3354702 C-271.30583144 286.83795106 -271.31621387 276.34043371 -271.31959915 265.84290791 C-271.31981872 265.17148377 -271.32003828 264.50005963 -271.3202645 263.8082893 C-271.32048278 263.13529625 -271.32070106 262.4623032 -271.32092595 261.76891643 C-271.32136941 260.40527046 -271.32181597 259.04162449 -271.32226562 257.67797852 C-271.32248705 257.00156896 -271.32270848 256.3251594 -271.32293662 255.62825259 C-271.3268824 244.674533 -271.34433079 233.72088002 -271.36762515 222.76718614 C-271.39137126 211.50979495 -271.4035448 200.25243597 -271.40496707 188.9950158 C-271.40601454 182.67900925 -271.4119102 176.36309668 -271.42978668 170.04711342 C-271.44628132 164.10372829 -271.44841599 158.16050765 -271.43964767 152.21710777 C-271.43887804 150.03950942 -271.44321025 147.86190218 -271.45310593 145.68432617 C-271.46585375 142.70356629 -271.45993303 139.72338648 -271.44952393 136.74263 C-271.46160853 135.46073421 -271.46160853 135.46073421 -271.47393727 134.15294152 C-271.37487451 121.96084996 -266.5011556 110.7746091 -258.2265625 101.85546875 C-254.33246092 98.33730047 -249.90729467 95.8107972 -245.36230469 93.21875 C-242.69054443 91.69464522 -240.03098127 90.15019951 -237.37109375 88.60546875 C-232.35084326 85.69534128 -227.32261004 82.79939257 -222.29039001 79.91001892 C-216.21568466 76.42176055 -210.1487605 72.92007385 -204.08203125 69.41796875 C-201.91539984 68.16790763 -199.74873311 66.91790775 -197.58203125 65.66796875 C-196.50953125 65.04921875 -195.43703125 64.43046875 -194.33203125 63.79296875 C-132.58203125 28.16796875 -132.58203125 28.16796875 -129.33154297 26.29272461 C-127.16646054 25.04361357 -125.00142143 23.79442746 -122.83642578 22.54516602 C-117.39587419 19.40594566 -111.95455909 16.26806312 -106.51171875 13.1328125 C-105.42769775 12.50802002 -104.34367676 11.88322754 -103.22680664 11.23950195 C-101.05990391 9.99094014 -98.89242992 8.74336921 -96.72436523 7.49682617 C-91.29357283 4.36943171 -85.88252807 1.2137514 -80.5 -1.99609375 C-79.43217285 -2.6295874 -78.3643457 -3.26308105 -77.26416016 -3.91577148 C-75.2578549 -5.10796712 -73.2558377 -6.30742471 -71.25927734 -7.51586914 C-44.57271826 -23.33614358 -24.5731306 -14.66078081 0 0 Z " fill="#0B3A32" transform="translate(304.08203125,23.08203125)"/>
<path d="M0 0 C7.15970263 4.32854261 14.17324471 8.82751102 21.10839844 13.50708008 C22.24167225 14.26773806 23.3752273 15.02797716 24.5090332 15.7878418 C26.36204207 17.02988407 28.21480506 18.27228279 30.06669617 19.51599121 C38.07910387 24.89677924 46.11362925 30.24439702 54.14584351 35.59555054 C59.06381289 38.87228271 63.98069493 42.15064648 68.89736938 45.42932129 C72.05116245 47.53227374 75.20543074 49.63446274 78.36254883 51.73242188 C84.75728492 55.98363925 91.12463258 60.2744624 97.48730469 64.57348633 C98.40615952 65.19423035 99.32501434 65.81497437 100.27171326 66.45452881 C104.09959559 69.04079004 107.92736896 71.62720829 111.75366211 74.21582031 C125.35552298 83.42995219 125.35552298 83.42995219 139.16772461 92.32275391 C143.38972783 95.04426774 147.34922186 98.13426134 151.35058594 101.16723633 C154.09104186 103.00448379 154.09104186 103.00448379 156.45825195 102.13500977 C160.41267396 100.12768895 163.99070994 97.68207619 167.64355469 95.17504883 C168.4706041 94.61348587 169.2976535 94.05192291 170.14976501 93.4733429 C171.94481218 92.2542418 173.73850787 91.03314891 175.53100586 89.81030273 C180.3942928 86.49364267 185.26871573 83.19344733 190.14355469 79.89379883 C191.15189362 79.21102875 192.16023254 78.52825867 193.1991272 77.82479858 C203.50524894 70.85726085 213.89461841 64.0188816 224.29589844 57.19458008 C241.11687711 46.15306403 257.83674679 34.96998596 274.48730469 23.6730957 C283.04558035 17.87150051 291.63488776 12.12323725 300.29589844 6.47583008 C301.13918701 5.92455444 301.98247559 5.37327881 302.85131836 4.80529785 C304.030448 4.03989685 304.030448 4.03989685 305.23339844 3.2590332 C306.26787109 2.5866864 306.26787109 2.5866864 307.32324219 1.90075684 C312.47335287 -1.24826815 316.27521318 -2.09761535 322.29589844 -1.30541992 C328.21173231 0.55384215 331.77524952 3.68032252 335.29589844 8.69458008 C336.64248798 12.73434869 336.44393984 16.63407646 336.44306946 20.84709167 C336.44674615 21.79547812 336.45042283 22.74386457 336.45421094 23.72099 C336.46526291 26.91295708 336.46909419 30.10489163 336.47290039 33.296875 C336.4791639 35.57987573 336.48581059 37.86287544 336.49281311 40.14587402 C336.51023323 46.35884175 336.52077765 52.57180179 336.52901864 58.78478789 C336.53416666 62.66523037 336.54024248 66.54567044 336.54652977 70.42611122 C336.56340057 81.17232498 336.57803532 91.91853501 336.58527851 102.66475964 C336.58718837 105.45310149 336.5891087 108.24144333 336.59106445 111.02978516 C336.59154819 111.72280341 336.59203193 112.41582166 336.59253033 113.12984047 C336.60082861 124.35341948 336.62616222 135.57689185 336.65864513 146.8004243 C336.69173187 158.32669138 336.70939608 169.85288827 336.71292275 181.37920457 C336.71527496 187.84946935 336.72425791 194.31956557 336.74938393 200.78978539 C336.77264273 206.8776267 336.7769065 212.96518823 336.76662254 219.05306244 C336.76612654 221.2863311 336.77246575 223.51961343 336.78617859 225.75284004 C336.80386762 228.80461232 336.79680548 231.85537725 336.78364563 234.90715027 C336.8000995 236.22901306 336.8000995 236.22901306 336.81688577 237.57758015 C336.74841757 244.16603707 335.20907521 249.74381393 330.47949219 254.53442383 C329.90328125 254.89665039 329.32707031 255.25887695 328.73339844 255.63208008 C328.15460938 256.01235352 327.57582031 256.39262695 326.97949219 256.78442383 C322.54164287 259.18353958 318.20200646 259.1329265 313.29589844 258.69458008 C307.36184856 256.83291737 304.56932143 252.71667204 301.29589844 247.69458008 C299.7676795 244.6381422 300.1420602 241.44332776 300.13768005 238.08908081 C300.13274208 237.2951628 300.1278041 236.5012448 300.12271649 235.68326867 C300.10729178 233.00849315 300.09896745 230.33374171 300.09057617 227.65893555 C300.08100155 225.74733262 300.07099172 223.83573183 300.06057739 221.9241333 C300.03347716 216.72195193 300.01249536 211.51976143 299.99257541 206.31754827 C299.97074735 200.88560151 299.94334314 195.45368301 299.91651917 190.02175903 C299.86654917 179.72996099 299.82162635 169.43814729 299.7784968 159.14631855 C299.72916118 147.43184519 299.67422945 135.71740019 299.61881721 124.00295424 C299.50493106 99.9001893 299.39810651 75.79739717 299.29589844 51.69458008 C295.67783868 54.05071848 292.06042539 56.40784767 288.44311523 58.76513672 C286.92777821 59.75192287 286.92777821 59.75192287 285.38182831 60.7586441 C275.57839977 67.14848739 265.83704554 73.62918118 256.10839844 80.13208008 C254.43594778 81.24872945 252.7634217 82.36526586 251.09082031 83.48168945 C247.88881604 85.61911534 244.68735652 87.75735317 241.48632812 89.89624023 C238.15613338 92.12102643 234.8223044 94.34028298 231.48730469 96.55786133 C222.10382158 102.81161499 212.76758088 109.13603708 203.42089844 115.44458008 C200.49617014 117.41836158 197.57137585 119.39204511 194.64645386 121.36553955 C192.83881678 122.58520796 191.03129497 123.80504722 189.22390747 125.02508545 C187.62066006 126.10693801 186.0164934 127.18743018 184.41119385 128.26623535 C183.08192106 129.16382146 181.75737761 130.06849335 180.43988037 130.98327637 C176.50624814 133.69458008 176.50624814 133.69458008 174.29589844 133.69458008 C174.29958561 134.63033875 174.30327278 135.56609741 174.30707169 136.5302124 C174.39589903 159.3070349 174.46161528 182.0838349 174.50314713 204.86079407 C174.52376584 215.8756018 174.55187335 226.89029505 174.59765625 237.9050293 C174.63754502 247.50630076 174.66333627 257.1074893 174.67225242 266.70884132 C174.67746368 271.79196055 174.68969785 276.87484259 174.71881866 281.95788574 C174.7460199 286.74476345 174.75433388 291.53130682 174.74832916 296.31825447 C174.74942729 298.07260011 174.7573531 299.82695721 174.77272034 301.58123589 C174.91004979 318.07072898 174.91004979 318.07072898 170.29589844 324.69458008 C165.89335338 329.09712514 160.5027773 331.80636188 154.23339844 332.06958008 C147.57551159 331.43549562 143.56484822 328.77116901 139.29589844 323.69458008 C136.73915246 318.67189114 135.86880208 314.65354561 135.97119141 308.99720764 C135.972863 307.88189318 135.972863 307.88189318 135.97456837 306.74404711 C135.98163611 304.26901808 136.00997844 301.79469663 136.03808594 299.31982422 C136.0470839 297.53869792 136.05459861 295.7575636 136.06074524 293.97642517 C136.07609947 290.14863994 136.09991602 286.32103317 136.12973022 282.49333382 C136.1748124 276.43747463 136.18849229 270.38179878 136.19555664 264.32579041 C136.21905298 247.10769276 136.25983149 229.89003512 136.38818359 212.67236328 C136.4588623 203.15695395 136.49040522 193.64226757 136.47789383 184.12659353 C136.47297576 179.09435368 136.48846236 174.06399572 136.5524292 169.03212166 C136.61248405 164.29943703 136.62143033 159.56939598 136.59160423 154.83645058 C136.5898055 153.10299316 136.60676285 151.36939601 136.64415932 149.63634109 C137.05514756 140.11358844 137.05514756 140.11358844 132.88953018 131.927845 C130.10705248 129.87617836 127.37479703 128.25486688 124.29589844 126.69458008 C123.05945001 125.88156798 121.83294646 125.05294674 120.62304688 124.20092773 C119.56118164 123.51047363 118.49931641 122.82001953 117.40527344 122.10864258 C116.81739548 121.72508102 116.22951752 121.34151947 115.62382507 120.94633484 C114.39276068 120.14352693 113.16088102 119.34196781 111.92819214 118.54165649 C109.35787639 116.87288278 106.79170574 115.19778338 104.22532654 113.52296448 C102.96263518 112.6989622 101.69974985 111.8752571 100.43666077 111.05186462 C94.31350155 107.05897912 88.22786625 103.01243569 82.15698242 98.94067383 C78.14720089 96.2559139 74.12978535 93.58257215 70.11422729 90.90646362 C66.73835043 88.65650229 63.36286129 86.40595934 59.98730469 84.15551758 C58.48144689 83.15160896 56.97558749 82.14770275 55.46972656 81.14379883 C40.74511719 71.32739258 26.02050781 61.51098633 11.29589844 51.69458008 C11.29443188 52.68187607 11.29296532 53.66917206 11.29145432 54.68638611 C11.25485107 78.71511182 11.19539058 102.74369824 11.1119957 126.77230835 C11.07219501 138.39239736 11.0398077 150.01241855 11.02490234 161.63256836 C11.01189122 171.76129389 10.98494019 181.88987025 10.94128537 192.01851177 C10.9186586 197.38102739 10.9029885 202.74335893 10.90401459 208.10592651 C10.90476047 213.15553517 10.88683825 218.20473672 10.85473061 223.25424004 C10.84622679 225.10530172 10.84448495 226.95640905 10.85009575 228.80748177 C10.85675 231.34063361 10.83878197 233.87249554 10.81488037 236.40551758 C10.82264079 237.13316787 10.83040121 237.86081816 10.83839679 238.61051846 C10.74862489 244.00756295 9.24528636 248.16553582 6.29589844 252.69458008 C1.18010096 257.55458769 -3.12905387 259.22776697 -10.10253906 259.07348633 C-15.92434644 258.22556543 -19.60855768 255.09912352 -23.14160156 250.56958008 C-25.8863243 245.51929023 -25.85487056 241.15569573 -25.85800171 235.54206848 C-25.86238396 234.59368203 -25.86676622 233.64529559 -25.87128127 232.66817015 C-25.884683 229.47620651 -25.89085123 226.28427048 -25.89697266 223.09228516 C-25.90487253 220.80928421 -25.91314141 218.52628451 -25.92175293 216.24328613 C-25.94798594 208.73357335 -25.96328168 201.22385496 -25.97753906 193.71411133 C-25.98289818 191.13042383 -25.98827569 188.54673636 -25.99367142 185.96304893 C-26.01530185 175.21683706 -26.03419038 164.47062844 -26.04529381 153.72440052 C-26.04822344 150.93605864 -26.05118512 148.14771679 -26.05419922 145.359375 C-26.05494527 144.66635675 -26.05569132 143.97333849 -26.05645998 143.25931969 C-26.06911052 132.0357142 -26.10233008 120.81226725 -26.14400105 109.58873586 C-26.18644477 98.06246725 -26.20958415 86.53630439 -26.21521437 75.00995559 C-26.21887024 68.5396475 -26.23091715 62.06960816 -26.26331711 55.59937477 C-26.29336519 49.51149125 -26.29972086 43.42403955 -26.28793335 37.33609772 C-26.28771235 35.10282216 -26.29603934 32.86952675 -26.31358719 30.63632011 C-26.33626129 27.58436342 -26.32799111 24.53397482 -26.31210327 21.48200989 C-26.32598536 20.60076803 -26.33986745 19.71952616 -26.3541702 18.81158 C-26.275284 12.65026285 -24.68287716 8.44278949 -20.70410156 3.69458008 C-14.44809484 -1.18510516 -7.48472328 -3.61329138 0 0 Z " fill="#FCFEFE" transform="translate(105.7041015625,139.305419921875)"/>
<path d="M0 0 C8.3983809 6.02846742 15.41111777 14.92211831 17.3125 25.3125 C18.2316601 37.14103576 16.65332743 47.13169054 9 56.46875 C1.83610541 64.29596816 -6.52077201 69.68981693 -17.3515625 70.515625 C-29.4137322 70.70658283 -38.7148233 67.83623172 -47.62890625 59.49609375 C-56.09474163 50.44514664 -59.08891291 40.93060274 -58.96484375 28.73046875 C-58.08847912 17.93020037 -52.58720986 9.79940468 -44.875 2.5625 C-32.10550725 -8.17269736 -14.01950496 -8.67648958 0 0 Z " fill="#FCFDFD" transform="translate(284.6875,109.6875)"/>
<path d="M0 0 C5.27322153 1.82534591 7.79691086 4.60719203 11 9 C12.3369435 13.01083049 12.15580419 16.87517718 12.16113281 21.05786133 C12.16858017 22.44857597 12.16858017 22.44857597 12.17617798 23.86738586 C12.1907999 26.93894184 12.19760177 30.01044617 12.203125 33.08203125 C12.20887656 35.21571352 12.21463429 37.34939577 12.22039795 39.483078 C12.23090811 43.95950563 12.23675064 48.43591529 12.24023438 52.91235352 C12.24571822 58.64571007 12.26974397 64.37882904 12.29820633 70.11211109 C12.31683892 74.52077424 12.32203865 78.92938025 12.32357025 83.33807945 C12.32659604 85.45156846 12.33462208 87.56505648 12.34775543 89.67850685 C12.36482818 92.63717293 12.36293252 95.5952596 12.35644531 98.55395508 C12.37026749 99.86103424 12.37026749 99.86103424 12.3843689 101.19451904 C12.34514989 106.91045906 11.47996022 111.21583133 7.53515625 115.64453125 C2.23163881 119.85076922 -1.25759299 120.46499359 -8 120 C-12.91120085 118.07403888 -16.57778175 115.67266717 -19.09220886 110.94749451 C-20.35731215 106.8398481 -20.28682806 102.99012162 -20.2746582 98.71508789 C-20.27976913 97.78765274 -20.28488007 96.86021759 -20.29014587 95.90467834 C-20.30402728 92.84393837 -20.30308623 89.78342393 -20.30078125 86.72265625 C-20.30466886 84.59183163 -20.30900366 82.46100778 -20.31376648 80.33018494 C-20.32122549 75.86568692 -20.32093962 71.40126799 -20.31567383 66.93676758 C-20.30987842 61.21914077 -20.32681363 55.50183782 -20.3500185 49.78426456 C-20.36475858 45.38417166 -20.36562718 40.98415672 -20.36250877 36.5840435 C-20.3630218 34.47614335 -20.36825613 32.36823881 -20.37832069 30.26036263 C-20.39067343 27.31146386 -20.38390028 24.3631955 -20.37231445 21.41430664 C-20.37995819 20.54606262 -20.38760193 19.6778186 -20.39547729 18.78326416 C-20.34605631 13.0848078 -19.51372069 8.6928153 -15.46484375 4.35546875 C-9.98677125 0.16635448 -6.81374481 -0.62152402 0 0 Z " fill="#429143" transform="translate(346,300)"/>
<path d="M0 0 C4.59551545 3.02886246 7.11988103 6.60105697 8.75 11.8125 C9.05118691 14.86610359 9.05402018 17.90720108 9.05639648 20.97387695 C9.06472 21.88834595 9.07304352 22.80281494 9.08161926 23.74499512 C9.10568501 26.76363401 9.11448736 29.78205664 9.12109375 32.80078125 C9.13006287 34.90439416 9.13918477 37.00800643 9.14845276 39.11161804 C9.16493614 43.52063547 9.17264166 47.92957701 9.17553711 52.33862305 C9.18091932 57.97776312 9.21859605 63.61618634 9.26428127 69.25512409 C9.29407961 73.60040365 9.30126128 77.94551118 9.30226326 82.29088402 C9.30646023 84.36924713 9.3188734 86.447611 9.33978081 88.52587318 C9.36675145 91.43875901 9.36185258 94.34999094 9.34936523 97.26293945 C9.36419952 98.11464218 9.37903381 98.96634491 9.39431763 99.84385681 C9.3194697 106.00053281 7.57590389 109.99749722 3.75 114.8125 C-0.42078825 118.7305132 -4.56499434 119.1647766 -10.22265625 119.1015625 C-14.62941237 118.47323889 -18.5174102 115.22823725 -21.25 111.8125 C-23.71292637 107.12939415 -23.53934092 102.68533973 -23.5246582 97.52758789 C-23.52976913 96.60015274 -23.53488007 95.67271759 -23.54014587 94.71717834 C-23.55402728 91.65643837 -23.55308623 88.59592393 -23.55078125 85.53515625 C-23.55466886 83.40433163 -23.55900366 81.27350778 -23.56376648 79.14268494 C-23.57122549 74.67818692 -23.57093962 70.21376799 -23.56567383 65.74926758 C-23.55987842 60.03164077 -23.57681363 54.31433782 -23.6000185 48.59676456 C-23.61475858 44.19667166 -23.61562718 39.79665672 -23.61250877 35.3965435 C-23.6130218 33.28864335 -23.61825613 31.18073881 -23.62832069 29.07286263 C-23.64067343 26.12396386 -23.63390028 23.1756955 -23.62231445 20.22680664 C-23.62995819 19.35856262 -23.63760193 18.4903186 -23.64547729 17.59576416 C-23.59603734 11.89512045 -22.74278844 7.545479 -18.75 3.16796875 C-12.77495662 -1.48447389 -7.13303179 -2.60630008 0 0 Z " fill="#419143" transform="translate(185.25,301.1875)"/>
<path d="M0 0 C0.8125 1.625 0.8125 1.625 1 4 C0.1924678 4.84885773 -0.61506439 5.69771545 -1.44706726 6.57229614 C-4.85978515 10.52390466 -4.71076041 14.17100384 -4.65942383 19.21826172 C-4.66990753 20.12621994 -4.68039124 21.03417816 -4.69119263 21.96965027 C-4.7198857 24.95667942 -4.71365777 27.94254554 -4.70703125 30.9296875 C-4.72014974 33.00620981 -4.73545442 35.08271935 -4.75285339 37.15921021 C-4.79269833 42.6139601 -4.80289356 48.06837614 -4.80688477 53.52325439 C-4.81621708 59.09373092 -4.85363131 64.66401136 -4.88867188 70.234375 C-4.95324272 81.15624085 -4.986487 92.07795998 -5 103 C-5.33 103 -5.66 103 -6 103 C-6.06953218 90.84758329 -6.12282775 78.69521396 -6.15543652 66.54263878 C-6.17108764 60.89961085 -6.19231608 55.25671909 -6.22631836 49.61376953 C-6.25893115 44.16729012 -6.27685718 38.72094163 -6.28463173 33.2743721 C-6.29017176 31.19715947 -6.30099007 29.11995394 -6.31719017 27.04279709 C-6.3389897 24.13172712 -6.34196584 21.22119715 -6.34057617 18.31005859 C-6.351362 17.45266083 -6.36214783 16.59526306 -6.3732605 15.71188354 C-6.34311218 9.8695159 -5.35222699 5.61358555 -1.3125 1.125 C-0.879375 0.75375 -0.44625 0.3825 0 0 Z " fill="#3F884D" transform="translate(332,303)"/>
<path d="M0 0 C0.66 0.33 1.32 0.66 2 1 C0.71034824 2.37562854 -0.62689293 3.70766393 -2 5 C-2.66 5 -3.32 5 -4 5 C-4.66 5.66 -5.32 6.32 -6 7 C-6.66 6.67 -7.32 6.34 -8 6 C-8.33 6.99 -8.66 7.98 -9 9 C-9.99 8.34 -10.98 7.68 -12 7 C-10.04754815 5.80285445 -8.08785003 4.61751926 -6.125 3.4375 C-5.03445312 2.77621094 -3.94390625 2.11492187 -2.8203125 1.43359375 C-1.88960937 0.96050781 -0.95890625 0.48742187 0 0 Z " fill="#577571" transform="translate(85,101)"/>
<path d="M0 0 C0.66 0 1.32 0 2 0 C0.06382979 6.70212766 0.06382979 6.70212766 -3 9 C-3.66 9 -4.32 9 -5 9 C-3.7580393 5.56072421 -2.44259716 2.74792181 0 0 Z " fill="#478950" transform="translate(191,408)"/>
<path d="M0 0 C-1.423125 0.0928125 -1.423125 0.0928125 -2.875 0.1875 C-4.421875 0.5896875 -4.421875 0.5896875 -6 1 C-7.45291273 3.46255685 -7.45291273 3.46255685 -8 6 C-8.99 5.67 -9.98 5.34 -11 5 C-11 4.01 -11 3.02 -11 2 C-3.57142857 -1.57142857 -3.57142857 -1.57142857 0 0 Z " fill="#4E6F68" transform="translate(252,9)"/>
<path d="M0 0 C0.99 0 1.98 0 3 0 C1.25 5.75 1.25 5.75 -1 8 C-1.625 5.6875 -1.625 5.6875 -2 3 C-1.34 2.01 -0.68 1.02 0 0 Z " fill="#3D635B" transform="translate(486,384)"/>
<path d="M0 0 C-1.75 1.5625 -1.75 1.5625 -4 3 C-6.25 2.6875 -6.25 2.6875 -8 2 C-6.04981346 -1.90037307 -3.74298737 -0.88649701 0 0 Z " fill="#35635B" transform="translate(448,421)"/>
<path d="M0 0 C0.66 0.33 1.32 0.66 2 1 C-0.65654657 4.73884332 -2.58110387 6.64978174 -7 8 C-5.61918777 3.8575633 -3.40174442 2.67796901 0 0 Z " fill="#044127" transform="translate(355,413)"/>
<path d="M0 0 C-0.375 1.9375 -0.375 1.9375 -1 4 C-1.99 4.495 -1.99 4.495 -3 5 C-5.125 4.0625 -5.125 4.0625 -7 3 C-2.25 0 -2.25 0 0 0 Z " fill="#466661" transform="translate(94,97)"/>
<path d="M0 0 C2.0625 1.75 2.0625 1.75 4 4 C3.75 6.25 3.75 6.25 3 8 C1.5 6.8125 1.5 6.8125 0 5 C-0.1875 2.3125 -0.1875 2.3125 0 0 Z " fill="#46894F" transform="translate(328,408)"/>
</svg>
